<?xml version="1.0" standalone="no"?>
<!DOCTYPE svg PUBLIC "-//W3C//DTD SVG 20010904//EN"
 "http://www.w3.org/TR/2001/REC-SVG-20010904/DTD/svg10.dtd">
<svg version="1.0" xmlns="http://www.w3.org/2000/svg"
 width="1080.000000pt" height="1080.000000pt" viewBox="0 0 1080.000000 1080.000000"
 preserveAspectRatio="xMidYMid meet">

<g transform="translate(0.000000,1080.000000) scale(0.100000,-0.100000)"
fill="#000000" stroke="none">
<path d="M6843 7438 c1 -7 -4 -12 -10 -10 -7 1 -12 -4 -10 -10 1 -7 -4 -12
-10 -10 -7 1 -12 -4 -10 -10 1 -7 -4 -12 -10 -10 -7 1 -12 -4 -10 -10 1 -7 -3
-12 -9 -11 -6 1 -11 -4 -11 -12 0 -8 4 -13 8 -12 4 1 7 -2 7 -8 0 -5 -3 -9 -7
-8 -4 1 -8 -4 -8 -12 0 -8 4 -13 8 -12 4 1 7 -2 7 -8 0 -5 -3 -9 -7 -8 -3 1
-6 -59 -6 -132 0 -87 3 -131 10 -128 5 3 4 0 -2 -7 -9 -9 -9 -17 -2 -26 7 -8
7 -14 -1 -19 -8 -5 -8 -10 0 -20 8 -10 8 -15 0 -20 -8 -5 -8 -10 0 -20 8 -10
8 -15 0 -20 -8 -5 -7 -11 2 -23 7 -9 8 -13 3 -10 -12 8 -14 -90 -2 -109 4 -6
3 -15 -3 -18 -8 -5 -8 -11 0 -20 8 -10 8 -15 0 -20 -8 -5 -8 -10 0 -20 8 -10
8 -15 0 -20 -7 -4 -8 -11 -2 -18 5 -7 8 -20 7 -29 -2 -10 0 -20 4 -22 4 -3 7
7 7 22 -1 15 4 27 9 27 6 0 9 -3 8 -6 -1 -3 4 -6 11 -6 7 0 13 6 13 13 0 7 -3
12 -6 11 -3 -1 -6 3 -6 8 0 6 3 9 8 7 4 -1 6 4 5 10 -2 7 3 12 10 10 8 -1 11
2 8 7 -4 5 -2 13 4 16 8 5 8 11 0 20 -6 7 -7 16 -3 18 5 3 8 36 8 74 -1 37 2
73 7 80 5 7 5 14 -2 18 -8 5 -8 10 0 20 8 10 8 15 0 20 -8 5 -8 10 0 20 8 10
8 15 0 20 -8 5 -7 11 2 23 11 13 11 14 -2 7 -12 -7 -13 -6 -3 6 10 12 10 18 0
29 -10 10 -9 11 3 5 13 -8 13 -6 2 7 -7 9 -9 19 -4 22 10 6 10 46 -1 63 -4 6
-3 14 1 17 10 6 10 46 -1 63 -4 6 -3 15 3 18 8 5 8 11 0 20 -8 10 -8 15 0 20
8 5 6 13 -6 26 -16 18 -12 24 11 19 5 -1 1 8 -9 19 -18 20 -15 26 9 21 5 -1 1
8 -9 19 -18 19 -15 26 8 22 5 -1 4 5 -4 13 -15 19 -21 20 -17 4z m-3 -53 c-8
-10 -8 -15 0 -20 6 -4 7 -12 2 -18 -13 -18 -8 -42 8 -39 10 3 9 -3 -4 -17 -18
-20 -15 -26 9 -21 5 1 1 -8 -9 -19 -17 -18 -15 -25 5 -23 3 1 6 -5 6 -13 0 -8
-5 -13 -11 -12 -6 1 -10 -4 -8 -10 1 -7 -1 -12 -5 -10 -5 1 -8 -2 -8 -8 0 -5
3 -9 6 -8 3 1 6 -4 6 -11 0 -7 -6 -13 -13 -13 -7 0 -12 4 -11 8 1 4 -2 6 -8 6
-5 -1 -9 -5 -8 -8 1 -3 -4 -6 -11 -6 -7 0 -13 6 -13 13 0 7 3 12 6 11 3 -1 6
3 6 8 0 6 -2 9 -6 8 -11 -4 -3 85 9 100 9 11 10 17 2 22 -8 5 -8 10 0 20 8 10
8 15 0 20 -8 5 -2 17 16 36 26 27 56 31 34 4z m-43 -270 c0 -6 -6 -12 -12 -12
-6 0 -12 6 -12 12 0 6 6 12 12 12 6 0 12 -6 12 -12z m40 0 c0 -6 -6 -12 -12
-12 -6 0 -12 6 -12 12 0 6 6 12 12 12 6 0 12 -6 12 -12z m-40 -40 c0 -6 -6
-12 -12 -12 -6 0 -12 6 -12 12 0 6 6 12 12 12 6 0 12 -6 12 -12z m38 -233 c-3
-3 0 -11 6 -18 7 -8 7 -14 -1 -19 -6 -3 -7 -12 -3 -18 12 -19 12 -36 2 -43 -6
-4 -6 -10 0 -18 8 -9 -1 -23 -31 -52 -23 -21 -36 -32 -30 -22 9 11 10 18 2 23
-8 5 -8 10 0 20 8 10 8 15 0 20 -8 5 -8 11 -1 19 7 9 7 16 -2 25 -6 7 -7 11
-2 9 6 -2 10 2 10 7 0 6 -3 9 -6 8 -3 -1 -6 4 -6 11 0 7 6 13 13 13 7 0 12 -4
11 -8 -1 -4 3 -7 8 -7 6 0 9 4 8 9 -2 5 0 8 5 7 4 -2 8 2 9 7 0 6 -2 9 -6 8
-4 -1 -8 4 -8 11 0 7 6 13 14 13 7 0 11 -3 8 -5z"/>
<path d="M6813 7378 c-4 -7 -8 -29 -8 -49 0 -20 -5 -42 -11 -50 -12 -16 -12
-68 0 -87 6 -11 12 -10 27 4 18 16 17 40 -2 28 -5 -3 -7 -9 -5 -13 3 -4 -1 -8
-8 -8 -7 0 -13 6 -13 13 0 7 3 11 7 9 4 -3 15 4 24 14 12 13 14 21 6 26 -8 5
-8 10 0 20 6 7 7 16 2 19 -5 3 -8 23 -7 46 2 43 0 47 -12 28z m8 -91 c-7 -7
-7 -14 0 -24 7 -7 10 -13 8 -14 -31 -6 -37 -5 -35 6 1 7 7 19 14 27 6 8 8 19
4 23 -4 5 -1 5 6 0 10 -5 11 -10 3 -18z"/>
<path d="M6805 6770 c-10 -11 -15 -20 -10 -20 4 0 2 -6 -4 -14 -9 -10 -9 -16
-1 -21 8 -5 8 -10 0 -20 -8 -10 -7 -13 4 -11 21 3 31 14 32 37 1 10 2 20 4 22
1 1 3 10 5 19 5 27 -10 30 -30 8z m20 -7 c-2 -10 -4 -19 -5 -20 -2 -2 -3 -12
-4 -22 0 -11 -5 -23 -10 -28 -5 -4 -6 -3 -2 4 3 6 1 15 -4 18 -8 5 -6 13 6 26
9 10 14 19 10 19 -4 0 -4 5 -1 10 9 15 14 12 10 -7z"/>
<path d="M6483 7115 c0 -6 6 -12 12 -12 6 0 12 6 12 12 0 6 -6 12 -12 12 -6 0
-12 -6 -12 -12z"/>
<path d="M6445 7082 c3 -3 0 -11 -6 -18 -7 -8 -7 -14 1 -19 6 -3 8 -11 4 -16
-3 -5 -2 -8 3 -7 4 2 8 -1 8 -7 0 -5 -4 -9 -8 -7 -5 1 -6 -2 -3 -7 4 -5 2 -13
-4 -16 -8 -5 -8 -11 0 -20 6 -7 7 -16 3 -18 -5 -3 -8 -65 -8 -137 0 -72 -3
-134 -7 -136 -5 -3 -5 -10 -1 -17 10 -16 10 -58 1 -63 -5 -3 -5 -11 -1 -17 4
-7 8 -65 8 -129 0 -64 4 -120 8 -124 4 -4 2 -13 -4 -20 -7 -8 -7 -14 1 -19 8
-5 8 -10 0 -20 -8 -9 -8 -15 0 -20 6 -4 9 -1 8 7 -2 7 3 12 9 11 7 -2 12 3 10
10 -1 6 4 11 11 10 6 -2 11 3 10 10 -2 6 2 11 8 10 6 -1 11 4 11 12 0 8 -4 13
-8 12 -4 -1 -7 3 -7 8 0 6 4 9 10 7 5 -1 7 2 4 7 -4 5 -2 13 4 16 8 5 8 11 0
20 -6 7 -7 15 -3 18 10 7 10 568 0 584 -4 6 -3 15 3 18 8 5 8 11 0 20 -8 10
-8 15 0 20 8 5 8 11 1 19 -6 7 -9 15 -6 18 3 2 -1 5 -9 5 -8 0 -14 -3 -13 -6
1 -3 -2 -7 -8 -7 -5 -1 -9 1 -8 5 1 4 -5 8 -13 8 -7 0 -12 -3 -9 -5z m18 -35
c-3 -7 3 -4 14 6 13 11 23 14 27 8 4 -5 2 -13 -4 -16 -8 -5 -8 -11 0 -20 8 -9
8 -15 0 -20 -6 -3 -7 -12 -3 -18 11 -17 11 -77 1 -83 -5 -3 -4 -12 2 -19 8
-10 8 -15 0 -20 -8 -5 -8 -10 0 -20 8 -9 8 -15 0 -20 -6 -4 -9 -3 -8 2 2 4 -1
8 -7 8 -5 0 -9 -3 -7 -7 1 -5 -2 -7 -7 -5 -5 1 -9 -2 -9 -8 0 -5 3 -9 7 -8 4
1 8 -4 8 -11 0 -7 -6 -13 -13 -13 -7 0 -11 4 -8 8 2 4 0 11 -6 14 -8 5 -8 11
0 20 8 10 8 15 0 20 -8 5 -8 10 0 20 6 7 7 16 2 19 -10 6 -10 46 1 63 4 6 2
15 -4 18 -7 5 -3 15 10 29 21 23 21 23 1 41 -11 10 -17 22 -14 26 8 14 25 -1
17 -14z m14 -532 c0 -6 -6 -12 -12 -12 -6 0 -12 6 -12 12 0 6 6 12 12 12 6 0
12 -6 12 -12z m28 6 c3 -5 2 -12 -3 -15 -5 -3 -9 1 -9 9 0 17 3 19 12 6z m-28
-42 c-1 -4 3 -6 8 -5 6 0 9 5 7 9 -1 5 1 6 6 3 13 -8 8 -81 -6 -81 -14 0 -16
-19 -2 -21 6 -1 13 -2 17 -3 3 0 -4 -12 -16 -25 -15 -16 -19 -26 -11 -31 8 -5
6 -13 -6 -26 -9 -10 -21 -16 -25 -13 -14 8 1 25 14 17 7 -3 4 3 -6 14 -13 14
-15 23 -7 28 8 5 8 10 0 20 -6 8 -7 16 -2 19 5 3 8 19 7 35 -1 17 0 29 4 28 3
-1 7 3 8 8 0 6 -2 9 -6 8 -4 -1 -8 4 -8 11 0 7 6 13 13 13 7 0 12 -4 11 -8z"/>
<path d="M6483 7015 c0 -8 4 -12 9 -9 5 3 6 10 3 15 -9 13 -12 11 -12 -6z"/>
<path d="M6455 6980 c-3 -5 -1 -11 5 -15 6 -4 7 -12 3 -18 -13 -20 -10 -51 6
-71 9 -11 11 -16 4 -13 -13 8 -28 -9 -14 -17 4 -3 16 3 25 13 12 13 14 21 6
26 -6 4 -7 12 -2 18 4 7 8 27 8 46 -1 25 -6 35 -18 37 -10 1 -20 -2 -23 -6z
m31 -24 c-1 -12 -4 -25 -8 -31 -3 -5 -4 -18 -2 -28 1 -11 0 -16 -4 -12 -10 10
-10 55 0 61 5 3 5 11 -1 18 -8 9 -7 13 3 13 7 0 12 -10 12 -21z"/>
<path d="M6479 6444 c-18 -22 -22 -49 -5 -35 7 6 15 9 17 6 3 -2 5 7 5 20 0
30 0 29 -17 9z"/>
<path d="M6455 6380 c-3 -5 -5 -10 -3 -11 27 -6 39 -5 45 4 3 7 3 9 -2 5 -4
-4 -14 -3 -21 3 -8 7 -14 7 -19 -1z"/>
<path d="M6455 6341 c-3 -5 -2 -12 3 -15 5 -3 9 1 9 9 0 17 -3 19 -12 6z"/>
<path d="M4125 6914 l0 -134 58 -58 c50 -50 88 -74 85 -53 -2 22 3 41 11 37 5
-3 14 1 20 8 10 12 9 14 -6 12 -10 -2 -22 -11 -28 -22 -11 -21 -42 -26 -37 -5
1 7 -2 10 -8 6 -5 -3 -10 1 -10 9 0 9 -6 15 -12 14 -7 -2 -12 3 -11 10 2 6 -3
11 -10 10 -6 -2 -11 3 -9 10 1 6 -3 11 -10 10 -7 -2 -12 9 -13 29 0 17 -3 35
-7 39 -4 4 -3 13 3 20 7 8 7 14 -1 19 -8 5 -8 10 0 20 8 10 8 15 0 20 -8 5 -8
10 0 20 8 10 8 15 0 20 -8 5 -8 10 0 20 8 9 8 15 0 20 -6 3 -7 12 -3 18 12 19
12 34 -1 34 -8 0 -11 -39 -11 -133z"/>
<path d="M3785 6705 c0 -143 3 -222 10 -222 6 0 10 73 11 203 1 147 -2 202
-10 197 -6 -4 -5 1 3 10 16 20 22 22 19 5 -2 -7 3 -12 10 -10 6 1 12 -5 12
-14 0 -8 5 -12 10 -9 6 3 10 -1 10 -10 0 -9 5 -13 10 -10 6 3 10 -1 10 -9 0
-9 6 -15 13 -13 6 1 11 -5 9 -13 -2 -8 0 -11 4 -7 4 4 57 -41 116 -100 60 -59
112 -108 116 -108 4 0 6 -4 4 -8 -1 -5 2 -6 8 -2 5 3 10 -1 10 -9 0 -9 6 -15
13 -13 6 1 11 -4 9 -11 -1 -6 4 -11 10 -10 7 2 12 -3 10 -10 -1 -8 1 -11 6 -8
5 3 64 -51 132 -119 68 -68 127 -122 132 -119 4 3 8 -2 8 -11 0 -9 5 -13 10
-10 6 3 10 -1 10 -10 0 -9 5 -13 10 -10 6 3 10 -1 10 -10 0 -9 5 -13 10 -10 6
3 10 -1 10 -10 0 -9 5 -13 10 -10 6 3 10 -2 10 -11 0 -10 3 -15 6 -11 8 8 485
-464 478 -474 -2 -4 5 -6 17 -4 16 3 18 1 10 -8 -8 -10 -4 -13 14 -13 14 0 25
1 25 2 0 9 -224 219 -233 219 -7 1 -11 6 -10 12 1 6 -4 17 -12 23 -8 7 -15 9
-15 4 0 -5 -6 2 -13 16 -7 14 -18 25 -25 25 -7 0 -11 4 -9 8 1 5 -11 15 -26
23 -15 8 -25 19 -22 24 4 6 1 10 -6 10 -7 0 -102 89 -211 198 -110 108 -204
196 -209 194 -5 -1 -9 5 -9 14 0 8 -4 12 -10 9 -5 -3 -10 2 -10 11 0 10 -3 15
-6 11 -4 -3 -66 53 -139 124 -73 72 -136 130 -140 129 -4 -1 -13 9 -20 22 -6
13 -17 22 -23 21 -7 -2 -12 4 -12 13 0 8 -4 12 -10 9 -5 -3 -10 1 -10 9 0 9
-6 15 -12 14 -7 -2 -12 3 -10 10 1 8 -2 11 -8 7 -5 -3 -10 1 -10 9 0 9 -3 15
-7 14 -5 -1 -22 11 -40 27 -59 53 -58 54 -58 -190z m1246 -952 c13 -16 12 -17
-3 -4 -17 13 -22 21 -14 21 2 0 10 -8 17 -17z"/>
<path d="M4410 6637 c52 -53 95 -97 96 -97 0 0 1 7 1 14 0 8 -5 14 -11 13 -6
-1 -10 4 -8 11 1 8 -2 11 -6 8 -11 -7 -44 28 -37 37 3 4 2 5 -2 2 -4 -3 -34
20 -67 52 -34 32 -18 14 34 -40z"/>
<path d="M3931 6576 c-19 -26 -30 -66 -22 -81 3 -5 6 -36 7 -67 0 -32 3 -60 6
-63 3 -3 5 35 4 85 -1 77 2 94 18 108 20 19 23 18 49 -5 9 -9 17 -13 17 -9 0
3 29 -22 64 -56 35 -35 128 -127 208 -206 79 -78 148 -139 151 -135 4 3 7 1 7
-6 0 -6 11 -23 25 -37 14 -14 25 -22 25 -18 0 4 79 -71 176 -167 97 -96 180
-173 185 -172 5 2 9 -4 9 -13 0 -8 5 -12 10 -9 6 3 10 -2 10 -11 0 -10 3 -15
6 -11 4 3 24 -12 46 -35 38 -39 50 -42 54 -13 1 8 -5 12 -18 10 -16 -3 -18 -2
-8 10 10 12 8 13 -9 10 -14 -2 -21 1 -21 11 0 8 -6 13 -12 11 -7 -1 -12 4 -11
10 2 7 -3 12 -10 10 -6 -1 -11 5 -9 13 2 8 0 11 -4 7 -4 -4 -61 45 -126 110
-65 65 -118 114 -118 110 0 -4 -38 30 -84 76 -250 245 -314 306 -320 300 -3
-3 -6 -1 -6 6 0 7 -7 19 -15 27 -8 9 -15 13 -15 10 0 -3 -16 9 -35 27 -19 17
-35 38 -35 46 0 8 -3 11 -7 7 -4 -3 -35 22 -70 56 -62 61 -102 79 -122 54z"/>
<path d="M6775 6561 c-3 -5 -2 -12 3 -15 5 -3 9 1 9 9 0 17 -3 19 -12 6z"/>
<path d="M4563 6497 c0 -8 6 -14 14 -14 9 0 10 4 2 14 -6 7 -12 13 -14 13 -1
0 -2 -6 -2 -13z"/>
<path d="M4760 6485 c13 -14 26 -25 28 -25 3 0 -5 11 -18 25 -13 14 -26 25
-28 25 -3 0 5 -11 18 -25z"/>
<path d="M3783 6455 c0 -6 6 -12 12 -12 6 0 12 6 12 12 0 6 -6 12 -12 12 -6 0
-12 -6 -12 -12z"/>
<path d="M4600 6466 c0 -2 8 -10 18 -17 15 -13 16 -12 3 4 -13 16 -21 21 -21
13z"/>
<path d="M4820 6425 c13 -14 26 -25 28 -25 3 0 -5 11 -18 25 -13 14 -26 25
-28 25 -3 0 5 -11 18 -25z"/>
<path d="M3780 6426 c0 -2 8 -10 18 -17 15 -13 16 -12 3 4 -13 16 -21 21 -21
13z"/>
<path d="M4690 6375 c30 -30 57 -55 59 -55 3 0 -19 25 -49 55 -30 30 -57 55
-59 55 -3 0 19 -25 49 -55z"/>
<path d="M4880 6366 c0 -2 8 -10 18 -17 15 -13 16 -12 3 4 -13 16 -21 21 -21
13z"/>
<path d="M4760 6306 c0 -2 8 -10 18 -17 15 -13 16 -12 3 4 -13 16 -21 21 -21
13z"/>
<path d="M4134 6259 c-10 -16 -13 -160 -4 -154 4 2 6 31 5 65 -2 85 11 90 71
27 l51 -52 -1 -78 c-1 -43 1 -80 4 -82 3 -2 5 34 5 81 l0 84 -61 61 c-47 46
-64 58 -70 48z"/>
<path d="M4800 6266 c0 -2 8 -10 18 -17 15 -13 16 -12 3 4 -13 16 -21 21 -21
13z"/>
<path d="M4840 6225 c0 -2 6 -8 13 -14 10 -8 14 -7 14 2 0 8 -6 14 -14 14 -7
0 -13 -1 -13 -2z"/>
<path d="M4881 6194 c0 -11 3 -14 6 -6 3 7 2 16 -1 19 -3 4 -6 -2 -5 -13z"/>
<path d="M4923 6156 c0 -8 5 -14 11 -13 6 1 10 -4 9 -10 -2 -7 3 -12 10 -10 6
1 11 -5 9 -13 -2 -8 0 -11 4 -7 5 4 84 -68 176 -160 93 -92 172 -168 176 -168
4 0 6 -3 5 -6 -1 -3 13 -21 32 -39 26 -25 33 -28 30 -14 -1 11 -8 18 -16 16
-9 -2 -10 0 -1 11 14 17 4 31 -13 17 -8 -7 -11 -1 -10 23 1 38 12 60 27 51 7
-5 8 -2 3 6 -6 9 -4 11 5 5 9 -6 11 -4 5 5 -5 9 -4 11 4 6 6 -4 9 -11 6 -16
-10 -16 13 -20 26 -4 10 12 10 15 -2 12 -8 -2 -13 3 -11 10 1 6 -4 11 -10 10
-7 -2 -12 3 -10 10 1 6 -4 11 -10 10 -7 -2 -12 3 -10 10 1 6 -4 11 -10 10 -7
-2 -12 2 -11 8 1 6 -4 11 -11 11 -7 0 -12 -12 -12 -26 1 -14 -3 -26 -9 -26 -5
0 -9 3 -8 6 1 3 -4 6 -12 6 -8 0 -13 -3 -12 -6 1 -3 -2 -6 -8 -6 -5 0 -9 3 -8
6 1 3 -4 6 -12 6 -8 0 -13 -3 -12 -6 1 -3 -2 -6 -8 -6 -5 0 -9 3 -7 8 1 4 -4
6 -10 5 -7 -2 -12 3 -11 9 2 7 -3 12 -10 10 -6 -1 -11 4 -10 10 2 7 -3 12 -10
10 -6 -1 -10 5 -9 13 2 8 0 12 -4 7 -11 -10 -45 23 -37 37 3 6 2 7 -2 3 -5 -4
-52 36 -105 88 -53 53 -97 90 -97 81z m433 -315 c-13 -14 -22 -34 -21 -44 3
-15 1 -16 -11 -6 -8 6 -14 8 -14 3 0 -4 -16 7 -35 26 -19 18 -32 37 -29 42 3
4 10 6 15 2 5 -3 7 -10 3 -15 -3 -5 0 -8 8 -7 7 2 12 -3 10 -10 -1 -8 2 -11 9
-6 7 4 9 3 5 -4 -7 -12 20 -10 31 3 4 4 3 5 -4 1 -20 -11 -23 11 -4 29 11 9
18 26 16 37 -4 20 -3 20 20 -2 l25 -24 -24 -25z m-52 8 c-3 -5 -10 -7 -15 -3
-5 3 -7 10 -3 15 3 5 10 7 15 3 5 -3 7 -10 3 -15z"/>
<path d="M5329 5854 c-16 -20 7 -25 25 -5 14 15 14 18 1 18 -8 0 -20 -6 -26
-13z"/>
<path d="M4123 6075 c0 -8 4 -12 9 -9 5 3 6 10 3 15 -9 13 -12 11 -12 -6z"/>
<path d="M5200 6045 c0 -2 6 -8 13 -14 10 -8 14 -7 14 2 0 8 -6 14 -14 14 -7
0 -13 -1 -13 -2z"/>
<path d="M4255 5961 c-3 -5 -2 -12 3 -15 5 -3 9 1 9 9 0 17 -3 19 -12 6z"/>
<path d="M4255 5921 c-3 -5 -2 -12 3 -15 5 -3 9 1 9 9 0 17 -3 19 -12 6z"/>
<path d="M5359 5827 c-1 -1 -2 -14 -3 -29 -2 -23 0 -26 11 -17 9 8 10 15 3 24
-7 8 -5 12 5 12 8 0 11 -5 8 -10 -4 -6 -1 -7 7 -2 8 5 11 4 6 -3 -3 -6 -2 -13
3 -16 17 -11 21 11 5 25 -14 11 -42 21 -45 16z"/>
<path d="M5414 5819 c-8 -14 14 -19 25 -6 8 10 7 14 -5 14 -8 0 -17 -4 -20 -8z"/>
<path d="M5439 5801 c-1 -4 -1 -9 0 -13 0 -5 -3 -7 -8 -5 -5 1 -8 -2 -7 -8 0
-5 4 -9 7 -8 3 1 6 -4 6 -11 0 -7 -6 -13 -13 -13 -7 0 -13 3 -12 6 2 18 -4 22
-16 12 -12 -10 -12 -16 -1 -38 8 -15 12 -30 9 -34 -2 -4 5 -6 17 -4 17 3 19 2
9 -10 -10 -12 -8 -13 10 -10 18 3 20 2 10 -10 -10 -12 -8 -13 10 -10 18 3 20
2 10 -10 -10 -12 -8 -13 9 -10 12 2 20 -1 18 -8 -1 -7 4 -11 11 -9 6 1 12 -4
12 -11 0 -20 47 -61 55 -48 6 11 -1 15 -18 12 -5 -1 -5 4 -1 10 5 8 3 9 -6 4
-9 -6 -11 -4 -5 5 5 8 4 11 -2 7 -5 -3 -10 0 -10 7 0 7 6 13 13 13 7 0 12 -3
11 -6 -1 -3 3 -6 8 -6 6 0 9 3 8 6 -1 3 4 6 12 6 8 0 13 -3 12 -6 -1 -3 3 -6
8 -6 6 0 9 5 7 10 -2 6 0 7 4 3 4 -4 13 -3 20 3 8 7 14 7 19 -1 4 -6 2 -9 -3
-8 -6 2 -10 -1 -10 -7 0 -5 5 -9 11 -7 7 2 6 -2 -1 -11 -7 -8 -8 -18 -4 -22 4
-5 1 -5 -7 0 -10 6 -12 4 -6 -5 6 -9 4 -11 -5 -5 -8 5 -11 4 -6 -3 7 -11 -12
-11 -30 0 -6 4 -11 1 -11 -7 0 -8 5 -13 11 -12 5 1 10 -3 11 -10 0 -15 13 -28
28 -28 7 -1 11 -6 10 -11 -1 -6 4 -11 11 -11 7 0 12 12 12 26 -1 14 4 27 9 28
6 0 9 -2 8 -6 -1 -4 4 -8 11 -8 7 0 13 6 13 13 0 7 -4 12 -8 11 -4 -1 -7 3 -7
8 0 6 3 9 7 8 4 -1 8 4 8 12 0 8 -5 13 -11 12 -6 -1 -10 4 -9 10 2 7 -3 12
-10 10 -7 -1 -12 7 -11 20 1 12 -4 21 -10 20 -6 -1 -10 4 -8 11 1 6 -4 11 -10
10 -7 -2 -12 2 -11 8 1 7 -9 10 -26 9 -17 -1 -28 3 -28 11 0 7 3 11 7 9 4 -2
7 2 7 10 0 8 -8 12 -20 10 -15 -3 -17 -2 -7 10 10 12 8 13 -10 10 -17 -3 -19
-1 -11 9 9 11 5 13 -19 11 -24 -2 -28 0 -20 10 9 10 7 13 -7 10 -10 -1 -17 -7
-16 -12 1 -5 -4 -10 -11 -10 -7 0 -13 6 -13 13 0 7 4 11 8 8 8 -5 22 13 25 32
2 10 -45 15 -47 5z m35 -9 c3 -5 -1 -9 -9 -9 -8 0 -12 4 -9 9 3 4 7 8 9 8 2 0
6 -4 9 -8z m-37 -77 c0 -6 -6 -12 -12 -12 -6 0 -12 6 -12 12 0 6 6 12 12 12 6
0 12 -6 12 -12z m186 -73 c14 -15 14 -19 3 -19 -8 0 -14 5 -13 11 1 6 -4 10
-11 8 -8 -1 -11 2 -7 8 8 13 9 13 28 -8z m49 -106 c-11 -12 -18 -29 -17 -39 2
-11 -1 -14 -8 -10 -7 4 -16 8 -21 8 -5 0 -10 8 -12 18 -1 9 1 15 6 12 4 -2 15
4 25 15 10 11 15 20 11 20 -4 0 -4 5 -1 10 5 8 11 7 21 -1 13 -10 12 -15 -4
-33z"/>
<path d="M5649 5533 c-13 -16 -12 -17 4 -4 16 13 21 21 13 21 -2 0 -10 -8 -17
-17z"/>
<path d="M5376 5781 c-4 -5 -2 -12 3 -15 5 -4 12 -2 15 3 4 5 2 12 -3 15 -5 4
-12 2 -15 -3z"/>
<path d="M5116 5682 c-4 -7 -11 -10 -16 -7 -5 3 -11 1 -15 -4 -3 -6 4 -8 16
-6 17 3 19 2 9 -10 -7 -8 -16 -12 -21 -9 -5 3 -8 2 -7 -3 2 -4 -1 -9 -7 -9 -5
-1 -9 1 -8 5 1 4 -5 8 -13 8 -7 0 -12 -3 -9 -5 3 -3 -1 -12 -8 -20 -10 -13 -9
-14 2 -7 10 6 12 4 6 -5 -6 -9 -4 -11 5 -5 9 6 11 4 5 -6 -7 -11 -6 -12 7 -2
18 15 32 5 18 -12 -7 -8 -5 -12 5 -12 8 0 11 5 8 10 -4 6 -1 7 7 2 9 -6 11 -4
5 5 -5 8 -4 11 3 6 11 -7 11 12 -1 31 -4 6 -3 14 3 18 5 3 10 -1 10 -9 0 -9 7
-13 19 -11 13 2 18 -2 17 -18 -1 -13 4 -21 12 -19 6 1 11 -4 10 -10 -2 -7 2
-12 8 -11 6 1 11 -4 11 -12 0 -8 -4 -13 -8 -12 -4 1 -7 -2 -7 -8 0 -5 3 -9 7
-8 4 1 8 -4 8 -11 0 -7 -6 -13 -13 -13 -7 0 -12 3 -11 6 1 3 -2 7 -8 8 -5 0
-9 -2 -8 -6 1 -4 -4 -8 -12 -8 -8 0 -13 5 -12 11 1 6 -4 10 -10 9 -7 -2 -12 3
-10 10 1 6 -4 11 -10 10 -7 -2 -12 0 -10 5 1 4 -1 7 -4 7 -4 0 -16 8 -26 18
-11 9 -23 14 -28 10 -4 -5 -5 -3 -2 3 8 14 -26 47 -38 37 -4 -5 -5 -2 -1 5 6
9 11 10 20 3 9 -8 13 -7 13 3 0 15 -22 15 -37 0 -8 -8 40 -61 151 -170 88 -87
165 -158 170 -156 5 1 9 -3 9 -8 0 -6 16 -26 35 -46 19 -19 35 -31 35 -28 0 4
75 -66 166 -157 207 -204 190 -189 198 -182 3 4 6 -2 6 -12 0 -10 3 -16 6 -12
3 3 34 -22 69 -56 34 -34 127 -126 207 -205 79 -78 148 -139 151 -135 4 3 7
-1 7 -10 0 -9 7 -17 16 -17 9 0 12 -5 8 -12 -4 -7 -4 -10 1 -6 4 4 68 -52 142
-125 74 -73 140 -131 145 -129 5 1 7 -2 4 -7 -4 -5 -2 -12 3 -15 20 -13 26 23
26 162 l0 142 -57 57 c-32 31 -64 58 -73 59 -8 1 -13 -1 -10 -6 6 -9 -31 -43
-49 -46 -7 -1 -71 56 -142 127 -70 70 -131 126 -136 123 -4 -3 -8 2 -8 11 0 9
-4 13 -10 10 -5 -3 -10 2 -10 11 0 10 -3 15 -6 11 -8 -8 -34 18 -34 34 0 7 -3
9 -6 6 -4 -4 -67 52 -139 124 -73 72 -136 130 -140 129 -4 -1 -13 9 -19 21 -6
12 -15 21 -20 20 -5 -1 -14 8 -20 21 -6 13 -18 23 -26 23 -8 1 -14 7 -12 14 1
7 -2 10 -8 6 -5 -3 -10 2 -10 11 0 10 -3 14 -7 11 -3 -4 -53 39 -110 96 -58
56 -109 101 -114 100 -5 -2 -8 3 -6 10 1 6 -4 11 -10 10 -7 -2 -12 3 -10 10 1
6 -4 11 -10 10 -7 -2 -12 3 -10 10 1 6 -4 11 -10 10 -7 -2 -12 3 -10 10 1 6
-4 11 -10 10 -7 -2 -12 3 -10 10 1 6 -4 11 -10 10 -7 -2 -12 3 -10 10 1 6 -4
11 -10 10 -7 -2 -12 3 -10 10 1 6 -4 11 -10 10 -7 -2 -12 3 -10 10 1 6 -4 11
-10 10 -7 -2 -12 3 -10 10 1 6 -4 11 -10 10 -7 -2 -13 4 -13 13 0 8 -4 12 -10
9 -5 -3 -10 2 -10 11 0 10 -3 15 -6 11 -8 -7 -29 12 -36 33 -3 10 -6 11 -12 2z
m-12 -73 c-3 -5 -10 -7 -15 -3 -5 3 -7 10 -3 15 3 5 10 7 15 3 5 -3 7 -10 3
-15z m93 -134 c0 -6 -6 -12 -12 -12 -6 0 -12 6 -12 12 0 6 6 12 12 12 6 0 12
-6 12 -12z m200 -79 c-1 -6 4 -10 11 -8 6 1 11 -4 10 -10 -2 -7 3 -12 10 -10
6 1 11 -4 10 -10 -2 -7 3 -12 10 -10 6 1 11 -4 10 -10 -2 -7 3 -12 10 -10 6 1
11 -4 10 -10 -2 -7 3 -12 10 -10 8 1 11 -2 7 -8 -5 -8 -13 -6 -25 5 -12 11
-20 13 -25 5 -3 -5 -11 -8 -16 -4 -14 8 0 26 14 18 7 -4 8 -3 4 1 -11 13 -38
15 -31 3 5 -7 2 -8 -6 -3 -9 6 -11 4 -5 -5 6 -9 4 -11 -6 -5 -8 5 -11 5 -7 0
4 -4 3 -14 -4 -22 -7 -9 -8 -13 -1 -11 6 2 10 -1 10 -7 -1 -5 -7 -10 -14 -11
-7 -1 -11 3 -10 9 1 7 -4 11 -10 10 -7 -2 -12 3 -10 10 1 6 -3 11 -9 10 -6 -1
-11 4 -11 12 0 8 3 13 6 12 3 -1 6 3 6 8 0 6 -3 9 -6 8 -3 -1 -6 4 -6 11 0 7
6 13 13 13 7 0 12 -4 11 -8 -1 -4 3 -7 8 -7 6 0 9 4 8 9 -2 5 0 8 5 7 4 -2 8
2 9 7 0 6 -2 9 -6 8 -4 -1 -8 4 -8 11 0 7 6 13 13 13 7 0 12 -5 11 -11z m-80
-39 c0 -8 -6 -14 -14 -14 -9 0 -10 4 -2 14 6 7 12 13 14 13 1 0 2 -6 2 -13z
m127 -89 c-3 -5 -14 -2 -25 8 -10 9 -16 21 -13 26 3 5 14 2 25 -8 10 -9 16
-21 13 -26z m59 17 c10 2 17 -3 17 -11 0 -9 5 -12 10 -9 6 3 10 -1 10 -10 0
-9 5 -13 10 -10 6 3 10 -1 10 -10 0 -9 5 -13 10 -10 6 3 10 -1 10 -10 0 -9 4
-14 8 -11 5 3 28 -15 52 -39 24 -24 48 -41 53 -38 6 3 7 1 4 -4 -8 -13 27 -46
37 -36 4 5 6 1 4 -7 -1 -8 3 -14 9 -13 7 2 12 -3 10 -10 -1 -6 4 -11 11 -9 6
1 11 -4 10 -10 -2 -7 3 -12 10 -10 6 1 11 -4 10 -10 -2 -7 3 -12 10 -10 6 1
11 -4 10 -10 -2 -7 3 -12 10 -10 6 1 12 -5 12 -14 0 -8 4 -13 8 -10 5 3 60
-46 122 -109 62 -63 117 -112 122 -109 5 3 7 0 6 -8 -2 -7 3 -12 9 -11 7 2 12
-3 10 -10 -1 -6 4 -11 10 -10 7 2 12 -3 10 -10 -1 -6 4 -11 10 -10 7 2 12 -3
10 -10 -1 -6 4 -11 10 -10 7 2 12 -3 10 -10 -1 -6 4 -11 11 -10 6 2 12 -4 12
-14 0 -9 3 -14 6 -10 3 3 33 -21 66 -55 63 -65 106 -81 130 -49 12 14 11 14
-4 2 -26 -19 -22 -8 5 17 l23 22 59 -62 c33 -33 53 -57 45 -52 -13 7 -13 5 -2
-8 9 -12 10 -18 2 -23 -8 -5 -8 -11 -1 -19 6 -7 8 -16 4 -20 -9 -9 -13 -37 -4
-32 9 6 8 -81 -2 -90 -4 -4 -2 -13 4 -20 7 -8 7 -14 -1 -19 -8 -5 -8 -10 0
-20 14 -17 -11 -15 -32 3 -8 6 -18 10 -21 7 -4 -3 -5 -2 -2 2 8 11 -27 43 -39
36 -6 -3 -8 -2 -3 2 9 11 -23 46 -35 39 -4 -3 -7 0 -6 8 2 7 -3 12 -9 11 -7
-2 -13 5 -13 14 0 9 -3 14 -6 10 -4 -3 -75 61 -158 143 -83 82 -171 166 -195
187 -24 21 -98 90 -164 153 -65 63 -124 114 -131 112 -6 -2 -8 0 -3 4 10 11
-23 45 -37 37 -6 -3 -8 -2 -3 2 10 12 -23 46 -37 38 -6 -3 -8 -2 -3 2 10 11
-23 46 -36 38 -5 -3 -7 -1 -4 4 8 13 -27 46 -37 36 -4 -5 -6 -1 -4 7 2 9 -3
14 -12 12 -8 -2 -12 0 -7 4 9 10 -23 45 -35 38 -4 -3 -7 0 -6 8 2 7 -3 12 -9
11 -7 -2 -12 3 -10 10 1 6 -4 11 -10 10 -7 -2 -12 3 -10 10 1 6 -4 11 -12 9
-12 -3 -12 0 -2 12 11 13 9 15 -9 11 -18 -3 -20 -2 -10 10 7 8 16 12 21 9 5
-3 8 0 7 8 -2 7 2 12 8 11 6 -1 11 4 11 12 0 8 -3 14 -6 13 -16 -1 -22 3 -16
13 5 7 12 6 23 -4 10 -8 25 -13 35 -12z m-85 -31 c-1 -5 -9 -9 -16 -10 -10 -2
-11 1 -1 12 12 14 24 13 17 -2z"/>
<path d="M5376 5342 c-23 -25 -25 -31 -12 -41 10 -8 16 -9 21 -1 3 5 3 10 -1
10 -4 0 1 9 11 20 10 11 23 17 29 13 6 -4 5 1 -3 10 -7 9 -14 17 -15 17 -1 0
-15 -13 -30 -28z m24 4 c0 -2 -8 -10 -17 -17 -16 -13 -17 -12 -4 4 13 16 21
21 21 13z"/>
<path d="M5125 5610 c-3 -5 -3 -10 1 -10 4 0 0 -8 -9 -18 -16 -17 -15 -20 6
-40 23 -22 24 -22 40 -4 16 18 16 20 -3 37 -11 10 -17 21 -15 26 3 4 1 10 -4
13 -5 4 -12 2 -16 -4z m31 -53 c1 -8 -4 -14 -12 -14 -7 0 -12 5 -11 11 1 6 -4
10 -12 8 -12 -3 -12 -1 -1 13 14 17 32 8 36 -18z"/>
<path d="M5576 5581 c-3 -4 3 -16 13 -25 16 -15 19 -15 34 2 23 25 9 37 -16
15 -11 -10 -17 -13 -14 -6 8 13 -9 28 -17 14z"/>
<path d="M5723 5515 c0 -6 6 -12 12 -12 6 0 12 6 12 12 0 6 -6 12 -12 12 -6 0
-12 -6 -12 -12z"/>
<path d="M5683 5475 c0 -6 6 -12 12 -12 6 0 12 6 12 12 0 6 -6 12 -12 12 -6 0
-12 -6 -12 -12z"/>
<path d="M5683 5434 c0 -7 5 -12 11 -11 6 1 10 -4 9 -10 -2 -7 3 -12 10 -10 6
1 11 -3 10 -9 -1 -6 13 -26 32 -44 21 -21 33 -27 31 -17 -2 19 -14 32 -27 32
-5 0 -9 5 -10 10 0 6 -7 17 -15 26 -8 9 -11 19 -7 23 5 4 1 6 -7 4 -8 -1 -14
2 -13 8 1 6 -4 11 -11 11 -7 0 -13 -6 -13 -13z"/>
<path d="M5803 5316 c0 -8 5 -14 11 -13 6 1 10 -5 8 -13 -2 -8 0 -12 4 -7 4 4
17 -1 28 -10 12 -10 5 -1 -13 20 -19 20 -36 37 -36 37 -1 0 -2 -6 -2 -14z"/>
<path d="M5880 5246 c0 -2 8 -10 18 -17 15 -13 16 -12 3 4 -13 16 -21 21 -21
13z"/>
<path d="M6050 5078 c125 -128 140 -143 140 -135 0 1 -62 63 -137 137 l-138
135 135 -137z"/>
<path d="M6283 4857 c0 -8 6 -14 14 -14 9 0 10 4 2 14 -6 7 -12 13 -14 13 -1
0 -2 -6 -2 -13z"/>
<path d="M4163 4835 c0 -6 6 -12 12 -12 6 0 12 6 12 12 0 6 -6 12 -12 12 -6 0
-12 -6 -12 -12z"/>
<path d="M4203 4835 c0 -6 6 -12 12 -12 6 0 12 6 12 12 0 6 -6 12 -12 12 -6 0
-12 -6 -12 -12z"/>
<path d="M6480 4846 c0 -2 8 -10 18 -17 15 -13 16 -12 3 4 -13 16 -21 21 -21
13z"/>
<path d="M6320 4826 c0 -2 8 -10 18 -17 15 -13 16 -12 3 4 -13 16 -21 21 -21
13z"/>
<path d="M4163 4795 c0 -6 6 -12 12 -12 6 0 12 6 12 12 0 6 -6 12 -12 12 -6 0
-12 -6 -12 -12z"/>
<path d="M4204 4778 c1 -15 -3 -27 -9 -27 -5 1 -9 4 -8 8 1 4 -4 8 -10 8 -9 0
-12 -20 -12 -66 1 -36 -1 -70 -4 -76 -8 -16 -7 -536 2 -542 4 -2 5 -9 1 -14
-3 -5 -1 -8 4 -7 6 2 10 -1 10 -7 0 -5 -3 -9 -7 -8 -4 1 -8 -4 -8 -12 0 -8 4
-13 8 -12 4 1 7 -2 7 -8 0 -5 -3 -9 -7 -8 -4 1 -8 -4 -8 -11 0 -7 6 -13 13
-13 7 0 12 3 11 6 -1 3 3 6 8 6 6 0 9 -3 8 -6 -1 -3 4 -6 11 -6 7 0 13 6 13
13 0 7 -3 12 -6 11 -3 -1 -6 3 -6 8 0 6 4 9 8 7 5 -1 6 2 3 7 -4 5 -2 13 4 16
8 5 8 11 0 20 -6 7 -7 16 -3 18 11 7 11 648 0 664 -4 6 -3 15 3 18 8 5 8 11 1
19 -6 7 -9 15 -6 18 3 2 -1 5 -8 5 -8 0 -13 -11 -13 -29z m21 3 c3 -5 2 -12
-3 -15 -5 -3 -9 1 -9 9 0 17 3 19 12 6z m-18 -40 c15 13 15 15 17 -34 1 -21
-2 -40 -6 -43 -5 -3 -4 -12 2 -19 8 -10 8 -15 0 -20 -8 -5 -8 -10 0 -20 8 -9
8 -15 0 -20 -6 -3 -8 -11 -4 -16 3 -5 0 -8 -8 -7 -7 2 -12 -3 -10 -9 1 -7 -2
-12 -7 -10 -5 1 -9 -2 -9 -8 0 -5 3 -9 7 -8 4 1 8 -4 8 -11 0 -7 -6 -13 -13
-13 -7 0 -11 4 -8 8 2 4 0 11 -6 14 -8 5 -8 11 0 20 8 10 8 15 0 20 -8 5 -8
10 0 20 8 10 8 15 0 20 -7 4 -7 11 -2 18 5 7 8 38 7 69 0 38 3 54 9 48 6 -6
14 -6 23 1z m-10 -266 c0 -6 -6 -12 -12 -12 -6 0 -12 6 -12 12 0 6 6 12 12 12
6 0 12 -6 12 -12z m0 -240 c0 -6 -6 -12 -12 -12 -6 0 -12 6 -12 12 0 6 6 12
12 12 6 0 12 -6 12 -12z m0 -36 c-1 -4 3 -6 8 -5 6 0 9 5 7 9 -1 5 2 6 8 2 8
-5 8 -11 1 -19 -6 -7 -8 -16 -4 -20 14 -14 9 -76 -7 -91 -15 -14 -19 -13 -34
4 -12 13 -14 21 -6 26 8 5 8 10 0 20 -8 10 -8 15 0 20 8 5 8 10 0 20 -8 9 -8
15 0 20 6 3 8 10 6 14 -3 4 1 8 9 8 8 0 13 -4 12 -8z m17 -160 c-9 -10 -21
-16 -26 -13 -5 3 -2 14 8 25 9 10 21 16 26 13 5 -3 2 -14 -8 -25z"/>
<path d="M4209 4735 c-1 -3 -2 -11 -3 -17 -1 -7 -7 -12 -12 -11 -6 1 -10 -15
-9 -38 1 -22 -2 -42 -7 -45 -5 -3 -1 -15 9 -27 10 -11 13 -17 6 -14 -13 8 -28
-9 -14 -17 4 -3 16 3 25 13 12 13 14 21 6 26 -8 5 -8 10 0 20 8 9 8 15 0 20
-6 3 -7 12 -3 18 7 12 12 77 6 77 -2 0 -4 -2 -4 -5z m-3 -50 c-1 -8 -5 -17 -8
-21 -5 -4 -4 16 1 34 3 9 9 -1 7 -13z m-9 -70 c0 -8 -4 -12 -9 -9 -5 3 -6 10
-3 15 9 13 12 11 12 -6z"/>
<path d="M4175 4181 c-6 -11 1 -15 20 -11 5 1 1 -7 -8 -18 -13 -14 -15 -22 -7
-27 8 -5 8 -10 0 -20 -12 -14 -4 -22 20 -21 21 1 21 72 -1 92 -11 10 -19 12
-24 5z m31 -65 c0 -13 -5 -23 -12 -23 -10 0 -11 4 -3 13 7 8 7 14 -1 19 -6 3
-8 11 -4 16 9 14 18 2 20 -25z"/>
<path d="M6373 4772 c10 -10 15 -22 12 -25 -3 -4 -2 -5 2 -2 3 3 16 -3 27 -12
12 -10 5 -1 -13 20 -19 20 -37 37 -40 37 -2 0 3 -8 12 -18z"/>
<path d="M6440 4706 c0 -2 8 -10 18 -17 15 -13 16 -12 3 4 -13 16 -21 21 -21
13z"/>
<path d="M6480 4666 c0 -2 8 -10 18 -17 15 -13 16 -12 3 4 -13 16 -21 21 -21
13z"/>
<path d="M6520 4626 c0 -2 8 -10 18 -17 15 -13 16 -12 3 4 -13 16 -21 21 -21
13z"/>
<path d="M6600 4545 c0 -2 6 -8 13 -14 10 -8 14 -7 14 2 0 8 -6 14 -14 14 -7
0 -13 -1 -13 -2z"/>
<path d="M3883 4515 c0 -8 4 -12 9 -9 5 3 6 10 3 15 -9 13 -12 11 -12 -6z"/>
<path d="M3843 4476 c1 -6 -3 -10 -9 -9 -6 1 -11 -4 -11 -12 0 -8 5 -13 11
-12 6 1 10 -4 9 -10 -2 -7 0 -12 5 -10 4 1 7 -2 7 -8 0 -5 -3 -9 -7 -7 -5 1
-7 -4 -5 -10 1 -7 -3 -12 -9 -11 -6 1 -11 -4 -11 -12 0 -8 4 -13 8 -12 4 1 7
-2 7 -8 0 -5 -3 -9 -7 -8 -4 1 -6 -19 -6 -45 1 -26 -2 -52 -6 -58 -5 -5 -2
-22 6 -37 9 -18 10 -26 2 -24 -8 1 -11 -61 -12 -228 0 -178 3 -230 13 -230 6
0 12 -4 11 -10 -1 -5 -5 -9 -11 -7 -5 1 -7 -2 -4 -7 4 -5 2 -13 -4 -16 -8 -5
-8 -11 -1 -19 6 -7 9 -15 6 -18 -3 -2 2 -5 9 -5 8 0 14 5 13 11 -1 6 3 10 9 9
6 -1 11 4 11 12 0 8 -3 13 -6 12 -3 -1 -6 3 -6 8 0 6 3 9 8 7 4 -1 6 2 5 7 -2
5 2 8 7 8 6 -1 9 -6 7 -10 -1 -5 2 -6 8 -2 8 5 8 11 0 20 -8 10 -8 15 0 20 8
5 8 10 0 20 -6 7 -7 16 -3 18 11 7 11 693 0 704 -5 4 -7 4 -5 -2 2 -5 -1 -11
-7 -11 -5 -1 -9 1 -8 5 1 4 -4 8 -12 8 -8 0 -13 -5 -12 -11z m20 -29 c-5 -9
-3 -9 8 0 13 10 15 3 14 -50 0 -34 -4 -67 -8 -74 -4 -6 -3 -15 3 -18 8 -5 8
-11 0 -20 -8 -10 -8 -15 0 -20 8 -5 8 -11 1 -19 -6 -7 -7 -16 -3 -20 4 -4 2
-6 -5 -4 -6 2 -11 -1 -11 -7 0 -5 3 -9 7 -8 4 1 8 -4 8 -11 0 -7 -6 -13 -13
-13 -7 0 -12 5 -11 11 1 6 -5 10 -13 8 -8 -2 -12 0 -8 4 4 4 3 13 -3 20 -7 8
-7 14 1 19 6 3 8 11 4 16 -3 5 -2 8 3 7 4 -2 9 2 10 7 0 6 -2 9 -6 8 -12 -3
-6 43 7 60 10 11 10 17 2 22 -8 5 -5 14 9 29 21 23 21 23 1 41 -19 17 -18 41
1 29 5 -3 6 -11 2 -17z m11 -568 c-2 -4 0 -11 6 -14 8 -5 8 -11 0 -20 -7 -8
-7 -15 -1 -19 10 -7 10 -24 -2 -43 -4 -6 -2 -15 3 -18 8 -5 6 -13 -6 -26 -12
-13 -21 -16 -29 -9 -6 5 -14 7 -18 4 -3 -3 -4 1 -3 10 1 8 5 19 9 22 4 4 2 13
-4 20 -7 8 -7 14 1 19 8 5 8 10 0 20 -8 9 -8 15 0 20 6 4 9 2 8 -3 -2 -6 2
-10 7 -10 6 0 9 4 8 9 -2 5 0 8 5 7 4 -2 8 2 9 7 0 6 -2 9 -6 8 -4 -1 -8 4 -8
11 0 7 6 13 13 13 7 0 11 -4 8 -8z m-30 -210 c-3 -5 -10 -7 -15 -3 -5 3 -7 10
-3 15 3 5 10 7 15 3 5 -3 7 -10 3 -15z"/>
<path d="M3856 4381 c-4 -5 -2 -13 4 -16 8 -5 7 -12 -2 -22 -6 -8 -13 -21 -14
-29 -3 -17 22 -38 30 -25 4 5 2 12 -4 16 -6 4 -7 12 -3 18 10 17 12 57 2 63
-4 2 -10 0 -13 -5z"/>
<path d="M3846 4251 c-10 -11 -13 -22 -8 -25 5 -3 17 3 26 13 10 11 13 22 8
25 -5 3 -17 -3 -26 -13z"/>
<path d="M3846 3811 c-12 -13 -14 -21 -6 -26 8 -5 8 -11 0 -20 -7 -9 -6 -16 5
-25 8 -7 16 -10 16 -6 1 3 3 15 4 26 1 11 3 21 5 23 1 1 3 10 5 19 5 26 -10
30 -29 9z m20 -6 c-1 -8 -5 -17 -8 -21 -5 -4 -4 16 1 34 3 9 9 -1 7 -13z m-9
-50 c0 -8 -4 -12 -9 -9 -5 3 -6 10 -3 15 9 13 12 11 12 -6z"/>
<path d="M6683 4475 c0 -8 3 -13 6 -10 3 3 45 -34 94 -82 48 -48 87 -81 85
-73 -2 8 2 14 8 13 6 -1 11 4 11 11 0 15 -14 15 -36 2 -11 -7 -12 -6 -5 5 5 8
9 22 10 32 1 9 3 18 4 20 1 1 3 23 4 48 1 31 -2 46 -10 46 -7 0 -12 -5 -11
-11 1 -6 -4 -10 -10 -8 -7 1 -12 -4 -10 -10 1 -7 -4 -12 -10 -10 -7 1 -12 -4
-10 -10 1 -7 -4 -12 -10 -10 -7 1 -12 -2 -10 -7 1 -5 -2 -8 -8 -7 -5 0 -8 6
-7 11 2 6 0 7 -4 2 -4 -4 -24 9 -44 28 -24 24 -37 31 -37 20z m173 -39 c0 -19
-5 -34 -11 -33 -5 1 -10 -13 -9 -31 l1 -32 -29 27 -28 27 37 38 c20 21 37 38
38 38 0 0 1 -15 1 -34z"/>
<path d="M6825 4430 c-24 -26 -27 -46 -10 -60 10 -9 13 -7 10 7 -1 10 2 24 8
32 10 12 19 41 13 41 -2 0 -11 -9 -21 -20z m15 -4 c0 -2 -8 -10 -17 -17 -16
-13 -17 -12 -4 4 13 16 21 21 21 13z"/>
<path d="M6863 4377 c0 -8 6 -14 14 -14 9 0 10 4 2 14 -6 7 -12 13 -14 13 -1
0 -2 -6 -2 -13z"/>
<path d="M3780 3386 c0 -2 8 -10 18 -17 15 -13 16 -12 3 4 -13 16 -21 21 -21
13z"/>
<path d="M3785 3267 c1 -97 8 -116 36 -91 10 9 19 13 19 9 0 -4 8 -1 18 8 10
10 21 15 24 12 3 -3 11 1 17 9 10 11 9 14 -2 12 -8 -1 -22 -8 -31 -15 -9 -7
-16 -10 -16 -6 0 4 -6 2 -14 -4 -20 -16 -33 6 -31 52 1 21 -3 40 -7 43 -5 3
-4 12 2 19 7 9 7 15 -3 23 -10 9 -12 -5 -12 -71z m24 -70 c8 -10 7 -14 -2 -14
-8 0 -14 6 -14 14 0 7 1 13 2 13 2 0 8 -6 14 -13z"/>
<path d="M3929 3233 c-13 -16 -12 -17 4 -4 16 13 21 21 13 21 -2 0 -10 -8 -17
-17z"/>
</g>
</svg>
