<?xml version="1.0" encoding="iso-8859-1"?>
<!-- Uploaded to: SVG Repo, www.svgrepo.com, Generator: SVG Repo Mixer Tools -->
<svg height="800px" width="800px" version="1.1" id="Layer_1" xmlns="http://www.w3.org/2000/svg" xmlns:xlink="http://www.w3.org/1999/xlink" 
	 viewBox="0 0 512.001 512.001" xml:space="preserve">
<path style="fill:#6A82A1;" d="M256.162,511.806C43.827,511.817-76.937,265.614,54.897,98.154
	c7.522-9.553,21.546-10.79,30.624-2.717c6.624,5.887,15.939-3.428,10.05-10.05c-8.079-9.087-6.829-23.11,2.718-30.624
	c101.522-79.924,247.128-71.151,338.689,20.41c100.01,100.009,100.048,261.648-0.001,361.674l0.004-0.004
	c-0.004,0.004-0.004,0.004-0.004,0.004C388.655,485.179,324.438,511.803,256.162,511.806z M78.162,137.954
	c-94.268,141.405,8.257,331.628,177.997,331.619c190.325-0.01,284.589-230.905,150.956-364.538
	c-72.414-72.415-185.304-82.82-269.026-27.009C147.172,114.225,114.416,147.052,78.162,137.954z"/>
<path style="fill:#36495E;" d="M436.979,75.17C387.365,25.558,321.885,0.266,256.148,0.209v42.227
	c54.876,0.055,109.545,21.177,150.967,62.599C540.68,238.6,446.61,469.563,256.159,469.573c-0.004,0-0.007,0-0.011,0v42.233
	c0.004,0,0.01,0,0.014,0C484.443,511.795,596.884,235.074,436.979,75.17z"/>
<path style="fill:#6A82A1;" d="M256.784,442.727c-166.144,0-249.493-201.922-132.183-319.254
	c72.923-72.909,191.577-72.911,264.497-0.003c64.998,65.01,72.497,166.779,20.513,240.188c-7.14,10.085-21.425,11.927-30.889,3.902
	c-6.583-5.582-15.56,3.497-10.03,10.018c8.009,9.443,6.201,23.735-3.901,30.889C333.261,430.798,295.392,442.727,256.784,442.727z
	 M256.852,111.001c-128.513,0-193.349,156.131-102.387,247.092c45.582,45.582,115.463,55.255,171.427,24.92
	c-7.064-34.867,23.344-65.334,58.266-58.256C436.213,228.695,366.784,111.001,256.852,111.001z"/>
<path style="fill:#36495E;" d="M256.148,68.797v42.212c0.235-0.001,0.469-0.008,0.704-0.008
	c109.796,0,179.452,117.526,127.305,213.757c-34.867-7.068-65.34,23.332-58.266,58.256c-21.304,11.548-45.336,17.583-69.743,17.473
	v42.227c0.211,0,0.424,0.013,0.635,0.013c38.609-0.001,76.477-11.931,108.006-34.259c10.104-7.156,11.91-21.446,3.901-30.889
	c-5.542-6.536,3.459-15.591,10.03-10.018c9.464,8.023,23.749,6.183,30.889-3.902C496.976,240.283,408.362,68.23,256.148,68.797z"/>
<path style="fill:#FFDA79;" d="M345.131,235.599c-2.258-9.44-5.98-18.318-10.938-26.363c11.511-11.508,9.39-24.267,1.896-31.759
	c-7.54-7.541-20.262-9.602-31.761,1.896c-8.045-4.957-16.921-8.68-26.363-10.938c0-16.237-10.503-23.781-21.116-23.781
	c-10.755,0-21.116,7.634-21.116,23.781c-9.442,2.258-18.318,5.982-26.363,10.938c-11.51-11.51-24.267-9.39-31.759-1.898
	c-7.547,7.547-9.601,20.262,1.896,31.76c-4.957,8.045-8.68,16.921-10.938,26.363c-17.361,0-23.78,11.689-23.78,21.116
	c0,10.788,7.665,21.116,23.78,21.116c2.258,9.442,5.982,18.318,10.938,26.363c-11.51,11.511-9.388,24.268-1.896,31.76
	c7.541,7.54,20.266,9.598,31.761-1.898c8.045,4.957,16.921,8.679,26.363,10.938c0,16.237,10.503,23.781,21.116,23.781
	c10.755,0,21.116-7.634,21.116-23.781c9.442-2.258,18.318-5.98,26.363-10.938c22.489,22.485,52.391-7.336,29.863-29.863
	c4.957-8.045,8.679-16.921,10.938-26.363c16.237,0,23.781-10.503,23.781-21.116C368.912,246.025,361.333,235.599,345.131,235.599z"
	/>
<path style="fill:#65C6BB;" d="M55.332,55.213c45.994-45.938,116.848,22.745,69.804,69.788
	C78.234,171.902,9.259,101.335,55.332,55.213z"/>
<path style="fill:#FFD155;" d="M345.131,235.599c-2.258-9.44-5.98-18.318-10.938-26.363c11.511-11.508,9.39-24.267,1.896-31.759
	c-7.54-7.541-20.262-9.602-31.761,1.896c-8.045-4.957-16.921-8.68-26.363-10.938c0-16.237-10.503-23.781-21.116-23.781
	c-0.237,0-0.467,0.028-0.702,0.035v224.052c0.235,0.007,0.466,0.035,0.702,0.035c10.755,0,21.116-7.634,21.116-23.781
	c9.442-2.258,18.318-5.98,26.363-10.938c22.489,22.485,52.391-7.336,29.863-29.863c4.957-8.045,8.679-16.921,10.938-26.363
	c16.237,0,23.781-10.503,23.781-21.116C368.912,246.025,361.333,235.599,345.131,235.599z"/>
<path style="fill:#FF9392;" d="M336.397,404.795c-40.044-47.471,28.203-111.182,72.664-66.659
	c19.284,19.285,19.293,50.505-0.018,69.795C388.552,428.417,354.702,426.804,336.397,404.795z"/>
</svg>